<?xml version="1.0" encoding="UTF-8"?>
<svg width="1898px" height="622px" viewBox="0 0 1898 622" version="1.1" xmlns="http://www.w3.org/2000/svg" xmlns:xlink="http://www.w3.org/1999/xlink">
    <!-- Generator: Sketch 43.2 (39069) - http://www.bohemiancoding.com/sketch -->
    <title>Comparison</title>
    <desc>Created with Sketch.</desc>
    <defs></defs>
    <g id="Page-1" stroke="none" stroke-width="1" fill="none" fill-rule="evenodd">
        <g id="Comparison">
            <g id="CSS" transform="translate(1276.000000, 0.000000)">
                <rect id="Rectangle" stroke="#000000" stroke-width="4" x="2" y="2" width="618" height="618"></rect>
                <text font-family="AvenirNext-Regular, Avenir Next" font-size="72" font-weight="normal" fill="#000000">
                    <tspan x="244" y="328">CSS</tspan>
                </text>
            </g>
            <g id="Async" transform="translate(640.000000, 0.000000)">
                <g id="Unofficial_JavaScript_logo_2" fill-rule="nonzero">
                    <rect id="Rectangle-path" fill="#F7DF1E" x="0" y="0" width="595" height="622"></rect>
                    <path d="M399.688889,485.939968 C411.673889,506.396857 427.266667,521.43346 454.844444,521.43346 C478.011667,521.43346 492.811111,509.329143 492.811111,492.604254 C492.811111,472.562032 477.605556,465.463333 452.105556,453.803302 L438.127778,447.533937 C397.781111,429.565048 370.977778,407.054571 370.977778,359.466635 C370.977778,315.630444 402.928333,282.259651 452.861111,282.259651 C488.41,282.259651 513.966667,295.193302 532.383333,329.057746 L488.844444,358.281873 C479.258333,340.312984 468.916667,333.234032 452.861111,333.234032 C436.484444,333.234032 426.105,344.094349 426.105,358.281873 C426.105,375.816349 436.493889,382.915048 460.482778,393.775365 L474.460556,400.034857 C521.966111,421.330952 548.788333,443.041714 548.788333,491.853905 C548.788333,544.477079 509.244444,573.306286 456.138333,573.306286 C404.212778,573.306286 370.666111,547.438984 354.251667,513.535048 L399.688889,485.939968 Z M202.177222,491.004825 C210.960556,507.295302 218.950556,521.068159 238.160556,521.068159 C256.53,521.068159 268.118333,513.554794 268.118333,484.34054 L268.118333,285.59673 L324.029444,285.59673 L324.029444,485.130381 C324.029444,545.651968 290.086111,573.197683 240.540556,573.197683 C195.773889,573.197683 169.848889,548.979175 156.664444,519.809349 L202.177222,491.004825 Z" id="Shape" fill-opacity="0.05" fill="#000000"></path>
                </g>
                <text font-family="AvenirNext-Regular, Avenir Next" font-size="72" font-weight="normal" fill="#000000">
                    <tspan x="200.332" y="328">Async</tspan>
                </text>
            </g>
            <g id="Vendor">
                <g id="Unofficial_JavaScript_logo_2" fill-rule="nonzero">
                    <rect id="Rectangle-path" fill="#F7DF1E" x="0" y="0" width="595" height="622"></rect>
                    <path d="M399.688889,485.939968 C411.673889,506.396857 427.266667,521.43346 454.844444,521.43346 C478.011667,521.43346 492.811111,509.329143 492.811111,492.604254 C492.811111,472.562032 477.605556,465.463333 452.105556,453.803302 L438.127778,447.533937 C397.781111,429.565048 370.977778,407.054571 370.977778,359.466635 C370.977778,315.630444 402.928333,282.259651 452.861111,282.259651 C488.41,282.259651 513.966667,295.193302 532.383333,329.057746 L488.844444,358.281873 C479.258333,340.312984 468.916667,333.234032 452.861111,333.234032 C436.484444,333.234032 426.105,344.094349 426.105,358.281873 C426.105,375.816349 436.493889,382.915048 460.482778,393.775365 L474.460556,400.034857 C521.966111,421.330952 548.788333,443.041714 548.788333,491.853905 C548.788333,544.477079 509.244444,573.306286 456.138333,573.306286 C404.212778,573.306286 370.666111,547.438984 354.251667,513.535048 L399.688889,485.939968 Z M202.177222,491.004825 C210.960556,507.295302 218.950556,521.068159 238.160556,521.068159 C256.53,521.068159 268.118333,513.554794 268.118333,484.34054 L268.118333,285.59673 L324.029444,285.59673 L324.029444,485.130381 C324.029444,545.651968 290.086111,573.197683 240.540556,573.197683 C195.773889,573.197683 169.848889,548.979175 156.664444,519.809349 L202.177222,491.004825 Z" id="Shape" fill-opacity="0.05" fill="#000000"></path>
                </g>
                <text font-family="AvenirNext-Regular, Avenir Next" font-size="72" font-weight="normal" fill="#000000">
                    <tspan x="177.688" y="328">Vendor</tspan>
                </text>
            </g>
        </g>
    </g>
</svg>