<svg xmlns="http://www.w3.org/2000/svg" width="952" height="581" viewBox="0 0 952 581">
  <g fill="none" fill-rule="evenodd">
    <g fill-rule="nonzero">
      <path fill="#F7DF1E" d="M0 302h952v279H0z"/>
      <path fill="#000" fill-opacity=".05" d="M864.356 519.97c5.378 9.176 12.375 15.92 24.75 15.92 10.397 0 17.038-5.43 17.038-12.93 0-8.99-6.824-12.175-18.266-17.405l-6.273-2.812c-18.105-8.06-30.133-18.157-30.133-39.503 0-19.663 14.338-34.632 36.745-34.632 15.952 0 27.42 5.802 35.684 20.992l-19.534 13.108c-4.302-8.06-8.943-11.235-16.147-11.235-7.35 0-12.008 4.872-12.008 11.235 0 7.866 4.663 11.05 15.428 15.92l6.272 2.81c21.317 9.55 33.353 19.29 33.353 41.185 0 23.604-17.745 36.535-41.576 36.535-23.3 0-38.355-11.603-45.72-26.81l20.39-12.378zm-88.63 2.272c3.94 7.307 7.526 13.485 16.146 13.485 8.243 0 13.443-3.37 13.443-16.475v-89.147h25.09v89.502c0 27.147-15.232 39.503-37.465 39.503-20.09 0-31.722-10.864-37.638-23.948l20.423-12.92z"/>
    </g>
    <text fill="#000" font-family="AvenirNext-Medium, Avenir Next" font-size="64" font-weight="400" transform="translate(0 302)">
      <tspan x="342.676" y="155">vendor.js</tspan>
    </text>
    <g fill-rule="nonzero">
      <path fill="#F7DF1E" d="M0 0h952v279H0z"/>
      <path fill="#000" fill-opacity=".05" d="M864.356 217.97c5.378 9.176 12.375 15.92 24.75 15.92 10.397 0 17.038-5.43 17.038-12.93 0-8.99-6.824-12.175-18.266-17.405l-6.273-2.812c-18.105-8.06-30.133-18.157-30.133-39.503 0-19.663 14.338-34.632 36.745-34.632 15.952 0 27.42 5.802 35.684 20.992l-19.534 13.108c-4.302-8.06-8.943-11.235-16.147-11.235-7.35 0-12.008 4.872-12.008 11.235 0 7.866 4.663 11.05 15.428 15.92l6.272 2.81c21.317 9.55 33.353 19.29 33.353 41.185 0 23.604-17.745 36.535-41.576 36.535-23.3 0-38.355-11.603-45.72-26.81l20.39-12.378zm-88.63 2.272c3.94 7.307 7.526 13.485 16.146 13.485 8.243 0 13.443-3.37 13.443-16.475v-89.147h25.09v89.502c0 27.147-15.232 39.503-37.465 39.503-20.09 0-31.722-10.864-37.638-23.948l20.423-12.92z"/>
    </g>
    <text fill="#000" font-family="AvenirNext-Medium, Avenir Next" font-size="64" font-weight="400">
      <tspan x="388.116" y="155">app.js</tspan>
    </text>
  </g>
</svg>
